<?xml version="1.0" standalone="no"?>
<!DOCTYPE svg PUBLIC "-//W3C//DTD SVG 20010904//EN"
 "http://www.w3.org/TR/2001/REC-SVG-20010904/DTD/svg10.dtd">
<svg version="1.0" xmlns="http://www.w3.org/2000/svg"
 width="300.000000pt" height="197.000000pt" viewBox="0 0 300.000000 197.000000"
 preserveAspectRatio="xMidYMid meet">
<metadata>
Created by potrace 1.10, written by Peter Selinger 2001-2011
</metadata>
<g transform="translate(0.000000,197.000000) scale(0.100000,-0.100000)"
fill="#000000" stroke="none">
<path d="M557 1350 c-125 -311 -285 -711 -358 -890 -72 -179 -134 -333 -136
-343 -5 -16 7 -17 164 -17 l169 0 52 128 c28 70 74 183 103 250 l51 122 333 0
333 0 11 -30 10 -30 168 176 c104 109 167 182 165 192 -2 9 -6 63 -9 119 -5
86 -2 112 17 175 32 106 76 183 145 252 124 123 271 169 426 132 32 -7 77 -25
102 -39 59 -35 141 -126 162 -179 l16 -43 168 0 169 0 -5 35 c-18 113 -97 261
-187 350 -320 316 -873 269 -1147 -97 -51 -68 -107 -180 -122 -243 -6 -28 -15
-50 -18 -50 -4 0 -12 15 -19 33 -15 38 -67 168 -150 372 -33 83 -64 158 -68
168 -7 16 -23 18 -163 20 l-157 2 -225 -565z m518 502 c5 -9 26 -57 46 -107
161 -399 176 -431 205 -442 23 -9 52 24 75 86 45 122 94 197 188 289 100 98
211 157 353 186 284 59 584 -50 727 -263 48 -72 82 -146 89 -193 5 -42 13 -39
-98 -43 -126 -4 -146 2 -180 54 -62 96 -123 147 -221 187 -53 22 -79 27 -151
26 -48 -1 -106 -6 -130 -12 -166 -45 -318 -200 -379 -387 -18 -56 -22 -92 -23
-204 l-1 -136 -135 -141 -134 -141 -31 13 c-22 9 -116 12 -353 11 -309 -2
-324 -3 -343 -22 -11 -11 -60 -116 -109 -233 -49 -118 -96 -220 -103 -228 -11
-10 -43 -14 -128 -13 -62 1 -115 4 -118 6 -4 5 48 145 89 240 10 22 34 83 54
135 21 52 52 131 71 175 18 44 90 224 160 400 70 176 130 329 135 340 23 53
64 153 117 285 68 168 54 158 218 152 80 -3 102 -7 110 -20z"/>
<path d="M912 1483 c-12 -5 -54 -76 -58 -98 -1 -6 -11 -33 -22 -60 -56 -134
-152 -389 -152 -404 0 -9 7 -27 16 -39 15 -22 19 -22 234 -22 l219 0 25 25
c24 24 25 27 11 65 -47 134 -199 501 -214 519 -18 21 -34 24 -59 14z m125
-258 c51 -132 102 -259 113 -282 l19 -42 -230 -3 c-127 -2 -232 -2 -233 -1 -1
2 46 125 106 275 59 149 108 278 108 285 0 46 33 -20 117 -232z"/>
<path d="M2059 1355 c-157 -43 -257 -204 -228 -366 7 -39 8 -72 3 -82 -5 -8
-141 -151 -303 -317 -292 -299 -294 -302 -298 -348 -7 -85 49 -143 133 -137
54 3 30 -18 405 353 l256 253 104 -3 c93 -2 110 1 161 24 101 47 184 157 189
253 4 73 0 128 -11 145 -7 12 -28 -4 -103 -78 -105 -103 -119 -108 -194 -70
-59 29 -103 90 -103 141 0 33 8 47 54 95 30 31 73 71 95 87 22 17 41 33 41 36
0 7 -105 29 -134 28 -12 0 -42 -7 -67 -14z m101 -38 c0 -7 -23 -35 -51 -62
-28 -28 -57 -63 -66 -79 -33 -63 11 -159 99 -218 86 -57 137 -48 230 40 67 63
83 61 75 -9 -11 -87 -73 -171 -161 -217 -46 -23 -61 -25 -146 -24 -75 2 -102
-2 -127 -15 -17 -10 -154 -139 -305 -287 -150 -148 -286 -277 -303 -288 -77
-47 -166 35 -124 114 6 12 61 72 123 133 331 334 456 466 462 490 4 15 4 60 0
100 -10 115 29 214 112 279 52 41 182 72 182 43z"/>
<path d="M2461 604 c-26 -48 -114 -135 -163 -160 -93 -48 -216 -57 -314 -24
l-58 20 -120 -119 -120 -120 85 -40 c177 -85 349 -98 569 -44 238 58 418 250
474 506 l6 27 -167 0 -168 0 -24 -46z m301 -7 c10 -17 -37 -131 -81 -194 -54
-78 -67 -92 -129 -141 -137 -107 -345 -158 -543 -132 -87 11 -220 52 -238 74
-7 9 13 36 75 99 46 48 89 87 94 87 5 0 35 -7 67 -15 181 -47 352 22 473 192
l30 42 93 3 c107 3 149 -1 159 -15z"/>
</g>
</svg>
